<?xml version="1.0" encoding="UTF-8"?>
<svg width="24px" height="24px" viewBox="0 0 24 24" stroke-width="1.5" fill="none" xmlns="http://www.w3.org/2000/svg" color="currentColor">
  <path d="M2 12h20M2 12c0 5.523 4.477 10 10 10M2 12C2 6.477 6.477 2 12 2M22 12c0 5.523-4.477 10-10 10M22 12c0-5.523-4.477-10-10-10M12 2a15.3 15.3 0 0 1 4 10 15.3 15.3 0 0 1-4 10M12 2a15.3 15.3 0 0 0-4 10 15.3 15.3 0 0 0 4 10" stroke="currentColor" stroke-width="1.5" stroke-linecap="round" stroke-linejoin="round"></path>
</svg>