<?xml version="1.0" encoding="UTF-8"?>
<svg width="24px" height="24px" viewBox="0 0 24 24" stroke-width="1.5" fill="none" xmlns="http://www.w3.org/2000/svg" color="currentColor">
  <path d="M10 17.5h4" stroke="currentColor" stroke-width="1.5" stroke-linecap="round"></path>
  <path d="M5.5 15.5C5.5 13.567 5.5 12.6 6.5 12c.35-.21.683-.322 1-.375m11 3.875c0-1.933 0-2.9-1-3.5-.35-.21-.683-.322-1-.375M7.5 11.5v-1a1 1 0 0 1 1-1h7a1 1 0 0 1 1 1v1" stroke="currentColor" stroke-width="1.5" stroke-linecap="round" stroke-linejoin="round"></path>
  <path d="M17 17.5v1a2 2 0 0 1-2 2H9a2 2 0 0 1-2-2v-1" stroke="currentColor" stroke-width="1.5" stroke-linecap="round" stroke-linejoin="round"></path>
  <path d="M12 7.5V4m0 0h2m-2 0H9.5" stroke="currentColor" stroke-width="1.5" stroke-linecap="round" stroke-linejoin="round"></path>
  <path d="M7 20.5h10" stroke="currentColor" stroke-width="1.5" stroke-linecap="round"></path>
</svg>